<svg height="24" viewBox="0 0 24 24" width="24" xmlns="http://www.w3.org/2000/svg"><g fill="#2cbfa6"><path d="m3.11298087.31298087c-.4-.3-.9-.4-1.1-.1l-1.8 1.7c-.3.3-.2.8.1 1.1l.7.7 2.7-2.7z" transform="matrix(.9998477 .01745241 -.01745241 .9998477 .032963 -.032393)"/><path d="m21.7 19.3c.5-.1 1.3-.1 1.8-.4.7-.7.3-1.5-.3-2.2l-2.9-2.9-.4-.4-.5-.4-.1-.1-.4-.4-3.5-3.5c-.2-.2-.4-.4-.6-.5-.1-.1-.3-.2-.4-.3 0 0-.1-.1-.2-.1-.2-.2-.3-.3-.5-.4-.2-.2-.4-.3-.6-.4-2.7-2-5.6-3.3-7.9-4.4l-.8-1.1c.1-.1.1-.3 0-.5h-.1l-2.82081803 2.72354844-.07918197.17645156c.1.1.3.1.5 0l.7.7c1.1 2.6 2.4 5.4 4.4 8.1.2.2.3.4.4.6.1.2.3.4.4.5 0 .1.1.1.1.2.1.1.2.3.3.4.2.2.4.4.5.6l3.4 3.4.4.4.6.6.4.4 2.9 2.9c.6.6 1.5 1.1 2.2.3.4-.4.4-1.2.5-1.7.1-.6 1 .7 2.1-.3 1.2-1-.1-1.9.5-2zm-8.1-.1-3.6-3.7c-.4-.5-1-.9-1.4-1.4l-.5-.7 5.2-5.3.4.3c.6.5 1.1.9 1.6 1.4l3.7 3.8z"/><path d="m15.2 11.8c-1-1-2.5-1-3.5 0-.4.4-.6.8-.7 1.3-.1.4-.1.7.1 1.1.1.4.3.8.6 1.1.5.5 1.3.8 2 .7.5 0 1.1-.3 1.5-.7.9-.9.9-2.2.2-3.2 0-.2-.1-.2-.2-.3z"/></g></svg>