<svg height="24" viewBox="0 0 20 24" width="20" xmlns="http://www.w3.org/2000/svg"><g fill="#2CBFA6" transform="matrix(.91354546 -.40673664 .40673664 .91354546 -.5532 3.991017)"><path d="m8.56111111 13.4388889c-.12777778-.2555556-.25555555-.5111111-.51111111-.7666667l-3.06666667-2.5555555v-.12777781-.12777778l.12777778-.12777778 1.97263653-.4152919c.23417147-.04929925.38404001-.27909768.33474075-.51326915-.00210695-.01000805-.00456759-.01993836-.00737728-.02977228-.07241103-.25343862-.32586386-.41008108-.58492945-.36150628l-1.58729277.29761739c-.12777778 0-.38333333-.12777778-.38333333-.25555555 0-.12777778.12777777-.38333334.25555555-.38333334l1.7788947-.41856346c.19837652-.04667682.32135341-.2453318.27467658-.44370832-.0025545-.01085664-.00559991-.02159188-.00912683-.03217266-.07341196-.22023586-.29708161-.35345619-.52569811-.3131121l-1.77430189.3131121c-.12777778 0-.38333334-.12777778-.38333334-.25555556s.12777778-.38333333.25555556-.38333333l1.71946825-.40458077c.23851467-.05612109.38637387-.29497058.33025277-.53348525-.00159914-.00679635-.00335849-.013554-.00527658-.02026731-.07152466-.25033634-.32709897-.40032312-.58053175-.34069188l-1.71946825.40458076c-.12777778 0-.38333333-.12777777-.38333333-.25555555s.12777778-.38333333.25555555-.38333333l1.71946825-.40458077c.23851467-.0561211.38637388-.29497058.33025278-.53348525-.00159914-.00679635-.00335849-.01355401-.00527658-.02026732-.07152467-.25033633-.32709898-.40032311-.58053175-.34069187l-1.71946825.40458076c-.12777778 0-.38333333-.12777778-.38333333-.25555555 0-.12777778.12777777-.38333334.25555555-.38333334l1.71946825-.40458076c.23851467-.0561211.38637387-.29497059.33025278-.53348526-.00159915-.00679635-.0033585-.013554-.00527658-.02026731-.07152467-.25033634-.32709898-.40032312-.58053176-.34069188l-1.71946824.40458077c-.12777778 0-.38333334-.12777778-.38333334-.25555556s.12777778-.38333333.25555556-.38333333l1.71946825-.40458077c.23851467-.05612109.38637387-.29497058.33025277-.53348525-.00159914-.00679635-.00335849-.013554-.00527658-.02026731-.07167483-.25086191-.32691727-.40196325-.58132975-.34414223l-2.35755914.53580889c-.12777777 0-.25555555 0-.38333333-.12777778-.25555556-.12777777-.63888889-.12777777-1.02222222-.12777777-.38333334.12777777-.63888889.25555555-.89444445.63888889-.12777777.25555555-.25555555.63888888-.12777777 1.02222222l2.04444444 8.56111112c.12777778.2555555.25555556.5111111.51111111.7666667l3.06666667 2.5555555 2.68333333 10.2222222c.12777778.3833334.25555556.6388889.63888889.7666667.25555556.1277778.51111111.2555556.76666667.2555556h.12777773.3833334c.2555555-.1277778.5111111-.2555556.7666666-.6388889.2555556-.2555556.2555556-.6388889.1277778-1.0222223z"/><path d="m10.0944444 6.02777778c.1277778.63888889.1277778 1.15-.12777773 1.53333333-.38333334.38333333-.76666667.38333333-.89444445.38333333-.89444444-.12777777-1.15-1.02222222-1.27777778-1.40555555l-.89444444-4.47222222s0 0 0-.12777778c.12777778-.76666667.38333333-1.15.89444444-1.53333333.89444445-.51111112 2.17222223 0 2.29999996.12777777.1277778.12777778.1277778.12777778.1277778.12777778 0 .12777778 0 .12777778-.1277778.12777778-.8944444.38333333-.8944444 1.15-.8944444 1.27777778 0 .12777777.51111111 2.17222222.8944444 3.96111111z"/></g></svg>