<svg height="24" viewBox="0 0 24 24" width="24" xmlns="http://www.w3.org/2000/svg"><path d="m13.7012299 1.1760456v18.1538462c0 1.6568542-1.3431457 3-3 3h-6.9230769c-1.65685425 0-3-1.3431458-3-3v-18.1538462c0-.55228475.44771525-1 1-1h1.23076923c.55228475 0 1 .44771525 1 1v2.16483517c0 1.74698901 1.44738461 3.16483516 3.23076923 3.16483516s3.23076924-1.41784615 3.23076924-3.16483516v-2.16483517c0-.55228475.4477152-1 1-1h1.2307692c.5522848 0 1 .44771525 1 1z" fill="#2CBFA6" transform="matrix(.70710678 -.70710678 .70710678 .70710678 -.67472 9.563749)"/></svg>