<svg height="18" viewBox="0 0 18 18" width="18" xmlns="http://www.w3.org/2000/svg"><g fill="#2CBFA6"><path d="m8.2284623.36096462c-.81559075.00000016-1.597774.43545576-2.17446455 1.21056385-.57669054.7751081-.90064468 1.8263702-.90059049 2.92250208.00148361 1.75943001.83163994 3.32470248 2.06867339 3.90051535v.70470011 4.51008069 2.7060485c0 .4997169.39897441.9020161.89456146.9020161s.89456147-.4022992.89456147-.9020161v-2.7060485-4.51008069-.61132746c1.35009122-.47760072 2.29137712-2.11759901 2.29231372-3.993888.0000542-1.09613188-.3238999-2.14739398-.9005905-2.92250208-.57669051-.77510809-1.35887376-1.21056369-2.1744645-1.21056385z"/><path d="m.06558893 12.7073106v3.6080646c0 .4997169.39897441.9020161.89456146.9020161.49558706 0 .89456147-.4022992.89456147-.9020161v-4.9003083c.74252274-.8215388 1.22957064-2.81003245 1.23002201-5.02186932.00000005-1.4353775-.20616782-2.81196571-.573149-3.8269308s-.86471448-1.58516639-1.3837042-1.58516606c-.02360626.00204854-.04719718.00527889-.07076115.00968946-.03225208-.00352147-.06375808-.00968946-.09696913-.00968946-.48361826 0-.87243314.38389807-.8910673.86678114-.00321022.00643285-.00641336.01289267-.00960938.01937936.00012032.00612154.00611522.00970389.00611522.01585564v9.04923024z"/><path d="m16.6708861.98110072v.45100807 3.60806458.90201614c0 .12492923-.0501934.23735698-.1310394.31887669s-.1923445.13213138-.3162413.13213138-.2353954-.05061167-.3162414-.13213138c-.0808459-.08151971-.1310393-.19394746-.1310393-.31887669v-.90201614-3.60806458-.45100807h-1.0063817v.45100807 3.60806458.90201614c0 .12492923-.0501934.23735698-.1310394.31887669s-.1923446.13213138-.3162413.13213138c-.1238968 0-.2353954-.05061167-.3162414-.13213138s-.1310394-.19394746-.1310394-.31887669v-.90201614-3.60806458-.45100807h-.6158845c-.3587895.79755415-.5537964 1.78164481-.5538592 2.79501699.0012146 1.87711233.6665111 3.55859308 1.6729346 4.22820067v1.09492763 5.41209689 1.8040323c0 .4997169.3989744.9020161.8945614.9020161.4955871 0 .8945615-.4022992.8945615-.9020161v-1.8040323-5.41209689-1.05264562c1.0405735-.63713466 1.7373171-2.34867298 1.7384545-4.27048268-.0013086-1.01427346-.1978722-1.99845767-.5582274-2.79501699h-.1554998z"/></g></svg>