<svg height="98" viewBox="0 0 90 98" width="90" xmlns="http://www.w3.org/2000/svg"><g fill="#4e4e4e"><path d="m80.7207215 76.7454545v.1272728s0 5.3454545-3.3264706 7.2545454c-.3838235.2545455-3.8382353 2.4181818-4.2220588 5.9818182l-.2558823 4.3272727c0 1.1454546.8955882 2.1636364 2.0470588 2.2909091h.1279412c1.1514706 0 2.0470588-.8909091 2.175-2.0363636l.1279411-4.2c.1279412-1.0181818 1.407353-2.1636364 2.0470589-2.5454546 5.117647-2.9272727 5.3735294-9.9272727 5.3735294-10.9454545l1.4073529-22.5272727v-.1272728-4.2c0-4.3272727-3.4544117-7.7636363-7.8044117-7.7636363-1.407353 0-2.6867648.3818182-3.8382353 1.0181818-1.0235295-3.0545455-3.9661765-5.3454545-7.4205883-5.3454545-1.9191176 0-3.5823529.6363636-4.9897059 1.7818181-1.4073529-1.9090909-3.7102941-3.1818181-6.2691176-3.1818181-1.2794118 0-2.4308824.2545454-3.4544118.7636363v-10.3090909c4.2220589-2.6727273 6.9088236-7.3818182 6.9088236-12.3454545 0-8.14545458-6.6529412-14.7636364-14.8411765-14.7636364s-14.457353 6.61818182-14.457353 14.7636364c0 5.0909091 2.6867648 9.6727272 6.9088236 12.4727272l-.7676471 31.9454546v.1272727l-6.9088235-13.2363636c0-.1272728-.1279412-.1272728-.1279412-.2545455-1.2794118-1.7818182-4.7338235-4.7090909-9.5955882-2.5454545-4.0941177 1.7818182-3.8382353 6.1090909-3.1985294 8.0181818.767647 2.4181818 7.6764706 23.5454545 9.467647 26.7272727.2558824.3818182.5117647.8909091.6397059 1.2727273 1.7911765 3.4363636 4.35 8.2727273 12.1544118 10.5636364 2.3029411.6363636 2.3029411 1.7818181 2.3029411 1.9090909v.3818181 2.8c0 1.1454546 1.0235295 2.1636364 2.175 2.1636364 1.1514706 0 2.175-1.0181818 2.175-2.1636364v-2.6727272c.2558824-1.7818182-.6397058-5.2181818-5.3735294-6.6181818-6.0132353-1.7818182-7.9323529-5.3454546-9.5955882-8.4-.2558824-.509091-.5117647-.8909091-.7676471-1.4-1.1514705-2.1636364-6.2691176-17.0545455-9.0838235-25.9636364 0-.1272727-.6397059-2.1636364.8955882-2.8 2.3029412-1.0181818 3.7102942.3818182 4.0941177.8909091l6.9088235 13.2363636s0 .1272727.1279412.1272727c.2558824.3818182 1.2794118 1.909091 2.9426471 2.2909091-.2558824.6363637-.6397059 1.0181819-1.0235295 1.1454546-1.1514705.3818182-1.6632352 1.6545454-1.2794117 2.8.3838235.8909091 1.1514706 1.4 2.0470588 1.4.2558824 0 .5117647 0 .7676471-.1272727 4.6058823-1.6545455 4.6058823-8.1454546 4.6058823-10.309091l1.0235294-42.2545454c0-1.9090909 1.5352941-3.4363636 3.4544118-3.4363636 1.9191176 0 3.4544118 1.5272727 3.4544118 3.4363636v28 1.9090909c0 1.1454545 1.0235294 2.1636364 2.175 2.1636364 1.1514705 0 2.175-1.0181819 2.175-2.1636364v-1.9090909c0-1.9090909 1.5352941-3.4363636 3.4544117-3.4363636 1.9191177 0 3.4544118 1.5272727 3.4544118 3.4363636v1.4.5090909 1.4c0 1.1454545 1.0235294 2.1636364 2.175 2.1636364s2.175-1.0181819 2.175-2.1636364v-1.4-.5090909c0-1.9090909 1.5352941-3.4363636 3.4544118-3.4363636 1.9191176 0 3.4544117 1.5272727 3.4544117 3.4363636v4.3272727.7636364 1.2727273c0 1.1454545 1.0235294 2.1636363 2.175 2.1636363s2.175-1.0181818 2.175-2.1636363v-1.2727273-.7636364c0-1.9090909 1.5352941-3.4363636 3.4544118-3.4363636 1.9191176 0 3.4544117 1.5272727 3.4544117 3.4363636v4.2zm-35.6955882-68.09090905c-4.35 0-7.8044118 3.43636365-7.8044118 7.63636365l-.1279411 5.4727273c-1.6632353-1.9090909-2.6867648-4.4545455-2.6867648-7 0-5.72727276 4.7338236-10.43636367 10.4911765-10.43636367 5.757353 0 10.4911765 4.70909091 10.4911765 10.43636367 0 2.5454545-.8955882 4.9636363-2.5588235 6.7454545v-5.2181818c0-4.2-3.582353-7.63636365-7.8044118-7.63636365z"/><path d="m69.7707215 22.9090909c.3838236.5090909 1.0235294.6363636 1.5352941.6363636.5117648 0 1.0235295-.1272727 1.407353-.5090909.8955882-.7636363.8955882-2.1636363.1279412-3.0545454l-3.1985294-3.4363637h17.9117647c1.1514705 0 2.175-1.0181818 2.175-2.1636363 0-1.1454546-1.0235295-2.1636364-2.175-2.1636364h-17.9117647l3.5823529-3.30909089c.8955882-.76363636.8955882-2.16363636.1279412-3.05454546-.7676471-.89090909-2.175-.89090909-3.0705883-.12727272l-7.292647 6.74545457c-.3838236.3818182-.6397059.8909091-.6397059 1.5272727 0 .5090909.1279412 1.1454545.5117647 1.5272727z" transform="matrix(-1 0 0 1 152.079678 0)"/><path d="m7.77072153 22.9090909c.38382353.5090909 1.02352941.6363636 1.53529412.6363636s1.02352945-.1272727 1.40735295-.5090909c.8955882-.7636363.8955882-2.1636363.1279412-3.0545454l-3.19852944-3.4363637h17.91176474c1.1514705 0 2.175-1.0181818 2.175-2.1636363 0-1.1454546-1.0235295-2.1636364-2.175-2.1636364h-17.91176474l3.58235294-3.30909089c.8955882-.76363636.8955882-2.16363636.1279412-3.05454546-.7676471-.89090909-2.17500003-.89090909-3.07058826-.12727272l-7.29264706 6.74545457c-.38382353.3818182-.63970588.8909091-.63970588 1.5272727 0 .5090909.12794117 1.1454545.5117647 1.5272727z"/></g></svg>