<svg height="200" viewBox="0 0 327 200" width="327" xmlns="http://www.w3.org/2000/svg"><g fill="none" fill-rule="evenodd"><g transform="translate(10 36)"><path d="m135.692632 15c.786906-5.83715013 1.261548-9.37150127 1.261548-9.37150127l.300526-2.22735791c.221544-1.64197572-.929943-3.15265691-2.571919-3.37420087-.132961-.01793976-.266975-.02693995-.401141-.02693995h-130.56927945c-1.65685425 0-3 1.34314575-3 3 0 .13647813.00931313.27279719.02787448.40800724l.30657101 2.23321413c.02248302.17048346.50461893 3.67175573 1.27653601 9.35877863h30.73928675z" fill="#343499"/><path d="m119.352795 57.4292052h-18.594291l1.400052-16.6373013h19.493613c-.734903 5.3104621-1.512156 10.9156747-2.299374 16.6373013zm-3.721848 26.9015527h-17.1419232l1.4573499-17.256525h18.0736303c-.809638 5.8330869-1.614295 11.6488355-2.389057 17.256525zm-3.654585 26.2823291h-15.7045032l1.4050349-16.6348245h16.6162803c-.849498 6.1080225-1.636716 11.7578185-2.316812 16.6348245zm-18.110999 28.496673 1.5893834-18.849169h15.1290366c-1.616787 8.827653-7.236926 17.382847-16.71842 18.849169zm-2.8449464-81.6805548h-17.6800218v-16.6373013h19.0825654zm-2.2719713 26.9015527h-15.4080505v-17.256525h16.8654005zm-2.2171649 26.2823291h-13.1908856v-16.6348245h14.5984117zm-2.4239342 28.741885h-10.7669514v-19.094381h12.3762644zm-20.4676706-81.9257668h-17.6675658l-1.407526-16.6373013h19.0750918zm0 26.9015527h-15.4030681l-1.4523676-17.256525h16.8554357zm0 26.2823291h-13.1809208l-1.4050349-16.6348245h14.5859557zm0 28.741885h-10.7594778l-1.609313-19.094381h12.3687908zm-37.255844-19.094381h15.1514572l1.5893834 18.859076c-9.5935978-1.45146-15.2012812-10.021515-16.7408406-18.859076zm-3.6022702-26.2823285h16.5340713l1.4025437 16.6348245h-15.6621526c-.6551847-4.857191-1.4274556-10.506987-2.2744624-16.6348245zm-3.7168652-26.9040296h17.9839477l1.4523676 17.256525h-17.0422755c-.7772533-5.6002588-1.5819097-11.4184843-2.3940398-17.256525zm-3.6595677-26.282329h19.4238593l1.4025436 16.6373013h-18.5070989c-.7946917-5.7166729-1.5794186-11.3268392-2.319304-16.6373013zm109.8019775-25.7919039c-.60536 4.3741959-1.362684 9.8927172-2.224638 16.1443993h-20.004308l1.357702-16.1443993h-9.735596l-1.3601933 16.1443993h-19.8996779v-16.1443993h-9.7007192v16.1443993h-19.8872219l-1.3601933-16.1443993h-9.7380872l1.3601933 16.1443993h-19.9544841c-.8719188-6.2492052-1.6466809-11.7702034-2.2595153-16.1443993h-9.8003671c3.2211171 22.9533826 11.6164494 82.9957856 14.5660261 105.312606 2.2346033 16.887468 14.3418184 28.687394 29.4459429 28.687394h44.9561324c14.9621266 0 27.0718326-11.777634 29.4434516-28.647763 3.213644-22.88403 11.439575-82.5053608 14.588447-105.352237z" fill="#66c"/></g><g transform="translate(176 34)"><path d="m135.692632 15c.786906-5.83715013 1.261548-9.37150127 1.261548-9.37150127l.300526-2.22735791c.221544-1.64197572-.929943-3.15265691-2.571919-3.37420087-.132961-.01793976-.266975-.02693995-.401141-.02693995h-130.56927945c-1.65685425 0-3 1.34314575-3 3 0 .13647813.00931313.27279719.02787448.40800724l.30657101 2.23321413c.02248302.17048346.50461893 3.67175573 1.27653601 9.35877863h30.73928675z" fill="#343499"/><path d="m119.352795 57.4292052h-18.594291l1.400052-16.6373013h19.493613c-.734903 5.3104621-1.512156 10.9156747-2.299374 16.6373013zm-3.721848 26.9015527h-17.1419232l1.4573499-17.256525h18.0736303c-.809638 5.8330869-1.614295 11.6488355-2.389057 17.256525zm-3.654585 26.2823291h-15.7045032l1.4050349-16.6348245h16.6162803c-.849498 6.1080225-1.636716 11.7578185-2.316812 16.6348245zm-18.110999 28.496673 1.5893834-18.849169h15.1290366c-1.616787 8.827653-7.236926 17.382847-16.71842 18.849169zm-2.8449464-81.6805548h-17.6800218v-16.6373013h19.0825654zm-2.2719713 26.9015527h-15.4080505v-17.256525h16.8654005zm-2.2171649 26.2823291h-13.1908856v-16.6348245h14.5984117zm-2.4239342 28.741885h-10.7669514v-19.094381h12.3762644zm-20.4676706-81.9257668h-17.6675658l-1.407526-16.6373013h19.0750918zm0 26.9015527h-15.4030681l-1.4523676-17.256525h16.8554357zm0 26.2823291h-13.1809208l-1.4050349-16.6348245h14.5859557zm0 28.741885h-10.7594778l-1.609313-19.094381h12.3687908zm-37.255844-19.094381h15.1514572l1.5893834 18.859076c-9.5935978-1.45146-15.2012812-10.021515-16.7408406-18.859076zm-3.6022702-26.2823285h16.5340713l1.4025437 16.6348245h-15.6621526c-.6551847-4.857191-1.4274556-10.506987-2.2744624-16.6348245zm-3.7168652-26.9040296h17.9839477l1.4523676 17.256525h-17.0422755c-.7772533-5.6002588-1.5819097-11.4184843-2.3940398-17.256525zm-3.6595677-26.282329h19.4238593l1.4025436 16.6373013h-18.5070989c-.7946917-5.7166729-1.5794186-11.3268392-2.319304-16.6373013zm109.8019775-25.7919039c-.60536 4.3741959-1.362684 9.8927172-2.224638 16.1443993h-20.004308l1.357702-16.1443993h-9.735596l-1.3601933 16.1443993h-19.8996779v-16.1443993h-9.7007192v16.1443993h-19.8872219l-1.3601933-16.1443993h-9.7380872l1.3601933 16.1443993h-19.9544841c-.8719188-6.2492052-1.6466809-11.7702034-2.2595153-16.1443993h-9.8003671c3.2211171 22.9533826 11.6164494 82.9957856 14.5660261 105.312606 2.2346033 16.887468 14.3418184 28.687394 29.4459429 28.687394h44.9561324c14.9621266 0 27.0718326-11.777634 29.4434516-28.647763 3.213644-22.88403 11.439575-82.5053608 14.588447-105.352237z" fill="#66c"/></g><g transform="translate(41 53)"><path d="m77 38.5c0 21.264291-17.2362031 38.5-38.5011038 38.5-21.2626931 0-38.4988962-17.235709-38.4988962-38.5s17.2362031-38.5 38.4988962-38.5c21.2649007 0 38.5011038 17.235709 38.5011038 38.5" fill="#eff6f9"/><path d="m52.1144202 20.192047-.1029234.062901-6.552064-11.254948-6.7688602 11.6757343 3.118362 5.3639403-4.8089346 2.7264348 15.7253914 4.2338906 4.2746086-15.5777677z" fill="#a0eadb"/><path d="m22 25.160817 10.2827421 5.839183 6.8139981-11.8310529v.0021812l5.9032598-10.1711283h-13.6147651z" fill="#239985"/><path d="m49.7163184 49.532586.0133392-5.532586-11.7296576 11.467224 11.6651845 11.532776.0155625-5.6178035v-.1223637l13.319253-.0043701-6.934193-11.7097663z" fill="#a0eadb"/><path d="m59.3935599 33-10.3935599 5.9491206 7.0594812 11.8344849-.0022361.004397 6.0487477 10.2119975 6.8940072-11.7553392z" fill="#239985"/><path d="m34 62-.0089485-12-25.9910515.03125 6.8769575 11.96875z" fill="#239985"/><path d="m25.1021407 43.7543965 4.8978593 2.7498504-4.2250765-15.5042469-16.14678894 4.059098 4.97635064 2.7972245.1076453.058141-6.7121305 11.0855365 13.9669725-.0387606z" fill="#a0eadb"/></g><g transform="translate(208.026667 55.053333)"><path d="m74.8696667 37.6166389c0 20.6039167-16.7004445 37.3043611-37.3043611 37.3043611-20.6017778 0-37.30222227-16.7004444-37.30222227-37.3043611s16.70044447-37.30436112 37.30222227-37.30436112c20.6039166 0 37.3043611 16.70044442 37.3043611 37.30436112" fill="#eff6f9"/><path d="m50.589 19.4596111-.1005278.0620278-6.3995555-11.09869446-6.6113056 11.51363886 3.0457778 5.2894723-4.697 2.6885833 15.3593611 4.1751111 4.1751111-15.3615z" fill="#a0eadb"/><path d="m21.7738889 24.2699722 9.9736389 5.7258056 6.6091666-11.6013334v.0021389l5.7258056-9.97363886h-13.2055z" fill="#239985"/><path d="m47.9068333 48.3110833.0128334-5.4156666-11.2847778 11.2248889 11.22275 11.2890555.0149722-5.4990833v-.1197778l12.8140833-.0042778-6.6711944-11.4623055z" fill="#a0eadb"/><path d="m58.0965 32.5496111-9.9415556 5.7878333 6.7524723 11.5136389-.0021389.0042778 5.7856944 9.9351389 6.5941945-11.4366389z" fill="#239985"/><path d="m32.70575 59.7840833-.0085556-11.4986666-24.84961107.0299444 6.57494447 11.4687222z" fill="#239985"/><path d="m24.15875 43.1264167 4.6713333 2.7313611-4.0296666-15.4-15.40000003 4.0318055 4.74619443 2.7784167.1026667.05775-6.40169447 11.011 13.32099997-.0385z" fill="#a0eadb"/></g><g fill="#a73730" fill-rule="nonzero" transform="translate(207 53)"><path d="m38.5 71.8666667c18.4279012 0 33.3666667-14.9387655 33.3666667-33.3666667s-14.9387655-33.36666667-33.3666667-33.36666667-33.36666667 14.93876547-33.36666667 33.36666667 14.93876547 33.3666667 33.36666667 33.3666667zm0 5.1333333c-21.2629629 0-38.5-17.2370371-38.5-38.5s17.2370371-38.5 38.5-38.5 38.5 17.2370371 38.5 38.5-17.2370371 38.5-38.5 38.5z"/><path d="m14.6148167 8.59069681 4.0011532-3.21588009 47.3625467 58.92781978-4.0011531 3.2158801z"/></g></g></svg>